<?xml version="1.0" encoding="utf-8"?>
<svg version="1.1" id="Capa_1" x="0px" y="0px" viewBox="0 0 55 55" style="enable-background:new 0 0 55 55;" xmlns="http://www.w3.org/2000/svg">
  <g>
    <path style="fill:#FBD490;" d="M44.827,8.677c-0.729-4.521-4.479-8.075-9.028-8.605c-1.273-0.148-2.505-0.065-3.661,0.213 c-3.037,0.729-6.191,0.728-9.228,0c-1.363-0.327-2.831-0.384-4.348-0.11c-4.237,0.766-7.628,4.207-8.332,8.455 c-0.76,4.587,1.145,8.731,4.737,10.8c0.067,0.038,0.108,0.108,0.108,0.185l0,4.384h24.892l0-4.346 C43.786,17.679,45.592,13.419,44.827,8.677z"/>
    <path style="fill:#E6E6E6;" d="M50,51H5V34.013C5,28.483,9.483,24,15.013,24h24.975C45.517,24,50,28.483,50,34.013V51z"/>
    <path style="fill:#A5A5A5;" d="M10,55L10,55c-1.657,0-3-1.343-3-3v-1h6v1C13,53.657,11.657,55,10,55z"/>
    <path style="fill:#A5A5A5;" d="M45,55L45,55c-1.657,0-3-1.343-3-3v-1h6v1C48,53.657,46.657,55,45,55z"/>
    <path style="fill:#A5A5A5;" d="M15,33c-0.553,0-1-0.447-1-1v-3c0-0.553,0.447-1,1-1s1,0.447,1,1v3C16,32.553,15.553,33,15,33z"/>
    <path style="fill:#A5A5A5;" d="M15,42c-0.553,0-1-0.447-1-1v-5c0-0.553,0.447-1,1-1s1,0.447,1,1v5C16,41.553,15.553,42,15,42z"/>
    <rect x="5" y="46" style="fill:#D2D5D7;" width="45" height="5"/>
    <path style="fill:#38454F;" d="M17,36h-4c-1.1,0-2-0.9-2-2v0c0-1.1,0.9-2,2-2h4c1.1,0,2,0.9,2,2v0C19,35.1,18.1,36,17,36z"/>
    <line style="paint-order: fill; fill: rgb(216, 175, 111); stroke: rgb(216, 175, 111); stroke-width: 2px;" x1="16.524" y1="7" x2="21.524" y2="7"/>
    <line style="paint-order: fill; fill: rgb(216, 175, 111); stroke: rgb(216, 175, 111); stroke-width: 2px;" x1="23.68" y1="7" x2="36.782" y2="7"/>
    <line style="paint-order: fill; fill: rgb(216, 175, 111); stroke: rgb(216, 175, 111);" x1="16.5" y1="11" x2="26.44" y2="11"/>
    <line style="paint-order: fill; fill: rgb(216, 175, 111); stroke: rgb(216, 175, 111);" x1="27.665" y1="11" x2="32.994" y2="11"/>
    <line style="paint-order: fill; fill: rgb(216, 175, 111); stroke: rgb(216, 175, 111);" x1="34.252" y1="11" x2="37.407" y2="11"/>
    <line style="paint-order: fill; fill: rgb(216, 175, 111); stroke: rgb(216, 175, 111);" x1="16.524" y1="13.972" x2="21.853" y2="13.972"/>
    <line style="paint-order: fill; fill: rgb(216, 175, 111); stroke: rgb(216, 175, 111);" x1="22.791" y1="13.972" x2="30.425" y2="13.972"/>
    <line style="paint-order: fill; fill: rgb(216, 175, 111); stroke: rgb(216, 175, 111);" x1="31.453" y1="13.972" x2="38.296" y2="13.972"/>
    <line style="paint-order: fill; fill: rgb(216, 175, 111); stroke: rgb(216, 175, 111);" x1="16.524" y1="17" x2="24.158" y2="17"/>
    <line style="paint-order: fill; fill: rgb(216, 175, 111); stroke: rgb(216, 175, 111);" x1="25.524" y1="17" x2="36.515" y2="17" transform="matrix(1, 0.000012, -0.000012, 1, 0.000204, -0.000372)"/>
  </g>
  <g/>
  <g/>
  <g/>
  <g/>
  <g/>
  <g/>
  <g/>
  <g/>
  <g/>
  <g/>
  <g/>
  <g/>
  <g/>
  <g/>
  <g/>
</svg>